<svg class="animated" id="freepik_stories-dna" xmlns="http://www.w3.org/2000/svg" viewBox="0 0 500 500" version="1.1" xmlns:xlink="http://www.w3.org/1999/xlink" xmlns:svgjs="http://svgjs.com/svgjs"><style>svg#freepik_stories-dna:not(.animated) .animable {opacity: 0;}svg#freepik_stories-dna.animated #freepik--Circles--inject-111 {animation: 1.5s Infinite  linear floating;animation-delay: 0s;}svg#freepik_stories-dna.animated #freepik--DNA--inject-111 {animation: 3s Infinite  linear heartbeat;animation-delay: 0s;}            @keyframes floating {                0% {                    opacity: 1;                    transform: translateY(0px);                }                50% {                    transform: translateY(-10px);                }                100% {                    opacity: 1;                    transform: translateY(0px);                }            }                    @keyframes heartbeat {                0% {                    transform: scale(1);                }                10% {                    transform: scale(1.1);                }                30% {                    transform: scale(1);                }                40% {                    transform: scale(1);                }                50% {                    transform: scale(1.1);                }                60% {                    transform: scale(1);                }                100% {                    transform: scale(1);                }            }        </style><g id="freepik--background-simple--inject-111" style="transform-origin: 251.126px 249.75px 0px;" class="animable"><path d="M397.44,66.43C312.81-.07,158.85,1,105.42,107.06c-12.75,25.31-25.69,51-46.09,71.16-17.33,17.12-36.87,34.17-44.8,58-17.61,53,26.74,93.08,62.64,123.61,34.09,29,53.37,72.68,89.9,98.47,22.58,15.95,50.42,22.23,77.73,19.5,28-2.79,49-20.17,73.69-31.8,18.72-8.83,38.45-10.93,57.88-17,16.61-5.22,32.92-15.65,46.48-26.59,29.64-23.92,51-57.49,61.44-94C509.34,220.43,468.58,122.34,397.44,66.43Z" style="fill: rgb(0, 255, 136); transform-origin: 251.126px 249.75px 0px;" id="el1lf1yazc3unh" class="animable"></path><g id="elqcrcpw8qe5"><path d="M397.44,66.43C312.81-.07,158.85,1,105.42,107.06c-12.75,25.31-25.69,51-46.09,71.16-17.33,17.12-36.87,34.17-44.8,58-17.61,53,26.74,93.08,62.64,123.61,34.09,29,53.37,72.68,89.9,98.47,22.58,15.95,50.42,22.23,77.73,19.5,28-2.79,49-20.17,73.69-31.8,18.72-8.83,38.45-10.93,57.88-17,16.61-5.22,32.92-15.65,46.48-26.59,29.64-23.92,51-57.49,61.44-94C509.34,220.43,468.58,122.34,397.44,66.43Z" style="fill: rgb(255, 255, 255); opacity: 0.7; transform-origin: 251.126px 249.75px 0px;" class="animable"></path></g></g><g id="freepik--Clock--inject-111" style="transform-origin: 437.58px 162.35px 0px;" class="animable"><g id="elt6xpywbrqy"><g style="opacity: 0.3; transform-origin: 437.58px 162.35px 0px;" class="animable"><g id="elmfbcvva0fb"><circle cx="437.58" cy="162.35" r="40.53" style="fill: none; stroke: rgb(0, 0, 0); stroke-miterlimit: 10; transform-origin: 437.58px 162.35px 0px; transform: rotate(-45deg);" class="animable"></circle></g><g id="elw1k0vkumjb"><circle cx="437.58" cy="162.35" r="36.29" style="fill: none; stroke: rgb(0, 0, 0); stroke-miterlimit: 10; transform-origin: 437.58px 162.35px 0px; transform: rotate(-45deg);" class="animable"></circle></g><polyline points="444.11 171.28 437.58 162.35 415.69 182.45" style="fill: none; stroke: rgb(0, 0, 0); stroke-miterlimit: 10; transform-origin: 429.9px 172.4px 0px;" id="elfd7xol2w4du" class="animable"></polyline></g></g></g><g id="freepik--Device--inject-111" style="transform-origin: 209.945px 358.67px 0px;" class="animable"><g id="el3g2aw29tukp"><g style="opacity: 0.3; transform-origin: 209.945px 358.67px 0px;" class="animable"><rect x="156.12" y="290.02" width="18.24" height="55.61" style="fill: rgb(255, 255, 255); stroke: rgb(0, 0, 0); stroke-miterlimit: 10; transform-origin: 165.24px 317.825px 0px;" id="elj6rkniuqu3" class="animable"></rect><rect x="122.75" y="262.89" width="84.97" height="70.29" style="fill: rgb(255, 255, 255); stroke: rgb(0, 0, 0); stroke-miterlimit: 10; transform-origin: 165.235px 298.035px 0px;" id="elrufyxuivtl9" class="animable"></rect><rect x="128.67" y="267.78" width="73.14" height="60.5" style="fill: rgb(255, 255, 255); stroke: rgb(0, 0, 0); stroke-miterlimit: 10; transform-origin: 165.24px 298.03px 0px;" id="el44oc2py5bk6" class="animable"></rect><rect x="69.91" y="343.4" width="280.08" height="111.05" style="fill: rgb(255, 255, 255); stroke: rgb(0, 0, 0); stroke-miterlimit: 10; transform-origin: 209.95px 398.925px 0px;" id="el1dnedwtzgnv" class="animable"></rect><line x1="69.82" y1="401.23" x2="348.74" y2="401.23" style="fill: rgb(255, 255, 255); stroke: rgb(0, 0, 0); stroke-miterlimit: 10; transform-origin: 209.28px 401.23px 0px;" id="el8028zk9s7o2" class="animable"></line><rect x="262.88" y="343.4" width="87.1" height="111.05" style="fill: rgb(255, 255, 255); stroke: rgb(0, 0, 0); stroke-miterlimit: 10; transform-origin: 306.43px 398.925px 0px;" id="el9cjgqfhdfvk" class="animable"></rect><rect x="64.48" y="343.4" width="290.93" height="10.68" style="fill: rgb(255, 255, 255); stroke: rgb(0, 0, 0); stroke-miterlimit: 10; transform-origin: 209.945px 348.74px 0px;" id="elg0cl6rpuf1o" class="animable"></rect><polygon points="206.83 354.18 211.23 362.29 236.22 362.29 240.64 354.18 206.83 354.18" style="fill: rgb(255, 255, 255); stroke: rgb(0, 0, 0); stroke-miterlimit: 10; transform-origin: 223.735px 358.235px 0px;" id="elaouifh8r52p" class="animable"></polygon><polygon points="206.83 400.89 211.23 409 236.22 409 240.64 400.89 206.83 400.89" style="fill: rgb(255, 255, 255); stroke: rgb(0, 0, 0); stroke-miterlimit: 10; transform-origin: 223.735px 404.945px 0px;" id="el80rhgzmmj0e" class="animable"></polygon><polygon points="112.97 354.18 117.37 362.29 142.36 362.29 146.78 354.18 112.97 354.18" style="fill: rgb(255, 255, 255); stroke: rgb(0, 0, 0); stroke-miterlimit: 10; transform-origin: 129.875px 358.235px 0px;" id="el3vtia2y0q1y" class="animable"></polygon><polygon points="112.97 400.89 117.37 409 142.36 409 146.78 400.89 112.97 400.89" style="fill: rgb(255, 255, 255); stroke: rgb(0, 0, 0); stroke-miterlimit: 10; transform-origin: 129.875px 404.945px 0px;" id="elrvvbczd0k4f" class="animable"></polygon></g></g></g><g id="freepik--Microscope--inject-111" style="transform-origin: 425.34px 367.585px 0px;" class="animable"><g id="el5morv5t2b8"><g style="opacity: 0.3; transform-origin: 425.34px 367.585px 0px;" class="animable"><g id="el8h42lxd3z7d"><rect x="447.02" y="329.15" width="8.25" height="9.33" style="fill: rgb(38, 50, 56); stroke: rgb(0, 0, 0); stroke-miterlimit: 10; transform-origin: 451.145px 333.815px 0px; transform: rotate(180deg);" class="animable"></rect></g><g id="el5udciqu62w9"><rect x="443.79" y="325.56" width="15.79" height="5.74" style="fill: rgb(38, 50, 56); stroke: rgb(0, 0, 0); stroke-miterlimit: 10; transform-origin: 451.685px 328.43px 0px; transform: rotate(180deg);" class="animable"></rect></g><g id="el3ap6zkn1qm"><rect x="433.74" y="335.61" width="35.53" height="94.75" style="fill: rgb(255, 255, 255); stroke: rgb(0, 0, 0); stroke-miterlimit: 10; transform-origin: 451.505px 382.985px 0px; transform: rotate(180deg);" class="animable"></rect></g><circle cx="455.45" cy="363.78" r="9.15" style="fill: rgb(38, 50, 56); stroke: rgb(0, 0, 0); stroke-miterlimit: 10; transform-origin: 455.45px 363.78px 0px;" id="elq8tl0ia6tmp" class="animable"></circle><polygon points="380.84 454.48 397.13 434.03 444.15 434.03 460.32 454.48 380.84 454.48" style="fill: rgb(255, 255, 255); stroke: rgb(0, 0, 0); stroke-miterlimit: 10; transform-origin: 420.58px 444.255px 0px;" id="el8o5zew2bzbl" class="animable"></polygon><g id="el9uz8q0pxmu"><path d="M381.26,428.21h64.4a5.67,5.67,0,0,1,5.67,5.67v.43a0,0,0,0,1,0,0H375.6a0,0,0,0,1,0,0v-.43A5.67,5.67,0,0,1,381.26,428.21Z" style="fill: rgb(255, 255, 255); stroke: rgb(0, 0, 0); stroke-miterlimit: 10; transform-origin: 413.465px 431.26px 0px; transform: rotate(180deg);" class="animable"></path></g><g id="elgn348iea5y"><rect x="403.86" y="307.73" width="17.03" height="3.41" style="fill: rgb(255, 255, 255); stroke: rgb(0, 0, 0); stroke-miterlimit: 10; transform-origin: 412.375px 309.435px 0px; transform: rotate(-146.91deg);" class="animable"></rect></g><g id="el4ku9teuuint"><rect x="394.01" y="297.09" width="15.89" height="10.22" style="fill: rgb(38, 50, 56); stroke: rgb(0, 0, 0); stroke-miterlimit: 10; transform-origin: 401.955px 302.2px 0px; transform: rotate(-146.785deg);" class="animable"></rect></g><g id="elqp69vyd0dtg"><rect x="449.89" y="280.69" width="3.23" height="10.41" style="fill: rgb(38, 50, 56); stroke: rgb(0, 0, 0); stroke-miterlimit: 10; transform-origin: 451.505px 285.895px 0px; transform: rotate(180deg);" class="animable"></rect></g><g id="elsi45db4h0s"><rect x="448.46" y="290.39" width="6.46" height="20.46" style="fill: rgb(255, 255, 255); stroke: rgb(0, 0, 0); stroke-miterlimit: 10; transform-origin: 451.69px 300.62px 0px; transform: rotate(180deg);" class="animable"></rect></g><g id="elm6zin9ttag"><rect x="444.15" y="308.69" width="15.07" height="11.84" style="fill: rgb(255, 255, 255); stroke: rgb(0, 0, 0); stroke-miterlimit: 10; transform-origin: 451.685px 314.61px 0px; transform: rotate(180deg);" class="animable"></rect></g><polygon points="419.79 303.02 436.96 317.53 475.08 320.89 474.21 330.69 428.22 326.63 412.68 315.04 419.79 303.02" style="fill: rgb(255, 255, 255); stroke: rgb(0, 0, 0); stroke-miterlimit: 10; transform-origin: 443.88px 316.855px 0px;" id="el84w76zrks6p" class="animable"></polygon></g></g></g><g id="freepik--Circles--inject-111" style="transform-origin: 220.045px 218.566px 0px;" class="animable"><circle cx="186.7" cy="99.41" r="7.85" style="fill: rgb(255, 255, 255); stroke: rgb(38, 50, 56); stroke-linecap: round; stroke-linejoin: round; transform-origin: 186.7px 99.41px 0px;" id="elbnzhw0zf7d" class="animable"></circle><path d="M253.39,58.71A5.4,5.4,0,1,0,248,64.1,5.4,5.4,0,0,0,253.39,58.71Z" style="fill: rgb(255, 255, 255); stroke: rgb(38, 50, 56); stroke-linecap: round; stroke-linejoin: round; transform-origin: 247.99px 58.6999px 0px;" id="eleahuxke0c8s" class="animable"></path><path d="M189.64,46.94a1.47,1.47,0,1,0-1.47,1.47A1.47,1.47,0,0,0,189.64,46.94Z" style="fill: rgb(255, 255, 255); stroke: rgb(38, 50, 56); stroke-linecap: round; stroke-linejoin: round; transform-origin: 188.17px 46.94px 0px;" id="elz71aq44ap5g" class="animable"></path><path d="M37.62,38.11a3.44,3.44,0,1,0-3.43,3.43A3.43,3.43,0,0,0,37.62,38.11Z" style="fill: rgb(255, 255, 255); stroke: rgb(38, 50, 56); stroke-linecap: round; stroke-linejoin: round; transform-origin: 34.18px 38.1px 0px;" id="el7sqszmsb6d" class="animable"></path><circle cx="35.17" cy="142.07" r="3.43" style="fill: rgb(255, 255, 255); stroke: rgb(38, 50, 56); stroke-linecap: round; stroke-linejoin: round; transform-origin: 35.17px 142.07px 0px;" id="eljjgleyszerm" class="animable"></circle><circle cx="188.66" cy="206.31" r="7.85" style="fill: rgb(255, 255, 255); stroke: rgb(38, 50, 56); stroke-linecap: round; stroke-linejoin: round; transform-origin: 188.66px 206.31px 0px;" id="el9txfc7qdl" class="animable"></circle><path d="M36.64,380.4a3.44,3.44,0,1,0-3.43,3.43A3.43,3.43,0,0,0,36.64,380.4Z" style="fill: rgb(255, 255, 255); stroke: rgb(38, 50, 56); stroke-linecap: round; stroke-linejoin: round; transform-origin: 33.2px 380.39px 0px;" id="elhnw6wrtbspi" class="animable"></path><g id="el932ob5evgfo"><circle cx="101.86" cy="392.17" r="10.3" style="fill: rgb(255, 255, 255); stroke: rgb(38, 50, 56); stroke-linecap: round; stroke-linejoin: round; transform-origin: 101.86px 392.17px 0px; transform: rotate(-12.84deg);" class="animable"></circle></g><circle cx="186.7" cy="356.37" r="3.92" style="fill: rgb(255, 255, 255); stroke: rgb(38, 50, 56); stroke-linecap: round; stroke-linejoin: round; transform-origin: 186.7px 356.37px 0px;" id="elq5axmgtsdwp" class="animable"></circle><path d="M28.79,257.8a2.45,2.45,0,1,0-2.45,2.46A2.45,2.45,0,0,0,28.79,257.8Z" style="fill: rgb(255, 255, 255); stroke: rgb(38, 50, 56); stroke-linecap: round; stroke-linejoin: round; transform-origin: 26.34px 257.81px 0px;" id="elblzk1x1rhnb" class="animable"></path><path d="M359.31,87.64a4.9,4.9,0,1,0-4.9,4.9A4.9,4.9,0,0,0,359.31,87.64Z" style="fill: rgb(255, 255, 255); stroke: rgb(38, 50, 56); stroke-linecap: round; stroke-linejoin: round; transform-origin: 354.41px 87.6399px 0px;" id="el4mn5p9qtxc3" class="animable"></path><circle cx="313.71" cy="95.98" r="4.41" style="fill: rgb(255, 255, 255); stroke: rgb(38, 50, 56); stroke-linecap: round; stroke-linejoin: round; transform-origin: 313.71px 95.98px 0px;" id="el7qqysoobtdu" class="animable"></circle><circle cx="412.28" cy="286.74" r="3.92" style="fill: rgb(255, 255, 255); stroke: rgb(38, 50, 56); stroke-linecap: round; stroke-linejoin: round; transform-origin: 412.28px 286.74px 0px;" id="elol9cc1fdlbh" class="animable"></circle></g><g id="freepik--Character--inject-111" style="transform-origin: 298.925px 288.609px 0px;" class="animable"><path d="M213.64,215.9l13.42-37.74s7.54-28.09,15.09-36.9S264,135.39,264,135.39s14.67-16.77,18-11.74-8.39,14.68-10.91,19.71S264.79,161,261,168.1s-13,14.26-13,14.26l-1.67,42.76-30.19,11.75Z" style="fill: rgb(255, 255, 255); stroke: rgb(38, 50, 56); stroke-linecap: round; stroke-linejoin: round; transform-origin: 248.115px 179.789px 0px;" id="el9bq66q9pp7" class="animable"></path><path d="M264,135.39s-14.26-2.93-21.81,5.87-15.09,36.9-15.09,36.9l-8,22.37a20.38,20.38,0,0,0,11.31,5.73c6.28.83,12.34-1.67,16.85-4.39l.76-19.51s9.23-7.13,13-14.26,7.55-19.71,10.06-24.74,14.26-14.68,10.91-19.71S264,135.39,264,135.39Z" style="fill: rgb(0, 255, 136); stroke: rgb(38, 50, 56); stroke-linecap: round; stroke-linejoin: round; transform-origin: 250.843px 164.565px 0px;" id="ely22jg2yip9n" class="animable"></path><path d="M266.89,139.17h13a0,0,0,0,1,0,0v39.31a4.3,4.3,0,0,1-4.3,4.3h-4.41a4.3,4.3,0,0,1-4.3-4.3V139.17A0,0,0,0,1,266.89,139.17Z" style="fill: none; stroke: rgb(38, 50, 56); stroke-linecap: round; stroke-linejoin: round; transform-origin: 273.385px 160.975px 0px;" id="ellnibpgp7i8" class="animable"></path><path d="M273.39,179.41h0a4.3,4.3,0,0,1-4.3-4.3V143.43h8.6v31.68A4.3,4.3,0,0,1,273.39,179.41Z" style="fill: rgb(0, 255, 136); transform-origin: 273.39px 161.42px 0px;" id="elv45f3ey5ckr" class="animable"></path><path d="M230.41,174s.84-21.8,2.52-28.51,19.71-19.71,22.22-19.71,29.35,6.71,30.61,10.48-2.94,9.23-9.22,11.32S247.6,153,247.6,153s2.94,14.68-.84,20.13" style="fill: rgb(0, 255, 136); stroke: rgb(38, 50, 56); stroke-linecap: round; stroke-linejoin: round; transform-origin: 258.197px 149.89px 0px;" id="eln4mrfyqves" class="animable"></path><path d="M279.47,146.71s1.68-3.77-.42-4.19-19.71-.42-23.48-.42-13.84,3.36-13.84,3.36" style="fill: none; stroke: rgb(38, 50, 56); stroke-linecap: round; stroke-linejoin: round; transform-origin: 260.918px 144.405px 0px;" id="ellzkfry6psfm" class="animable"></path><path d="M284.08,141.26a8.83,8.83,0,0,0-4.61-3.77c-2.93-.84-20.13-1.68-26-1.68s-12.58,2.52-12.58,2.52" style="fill: none; stroke: rgb(38, 50, 56); stroke-linecap: round; stroke-linejoin: round; transform-origin: 262.485px 138.535px 0px;" id="el19vg2a0rmx1" class="animable"></path><path d="M358.3,232.67A240.54,240.54,0,0,0,370,262.44c7.55,15.94,6.71,31.45,4.19,34.81s-11.32,4.19-11.32,4.19-22.22-10.9-26.83-22.23,1.67-41.51,8.38-44A44.66,44.66,0,0,1,358.3,232.67Z" style="fill: rgb(38, 50, 56); stroke: rgb(38, 50, 56); stroke-linecap: round; stroke-linejoin: round; transform-origin: 355.219px 267.055px 0px;" id="elwaqrwbzjcfo" class="animable"></path><path d="M290.79,265.8l-17.61,2.93s-5.87-7.55-11.74-8-16.77-.84-16.77-.84l2.09-38.16S223.7,228.06,222,228.9s-8-15.52-8-15.52-31.87,85.12-33.55,92.25,2.1,15.93,8,22.64S216.57,335,218.25,335s11.74,3.78,16.77,4.2,18-4.2,18-4.2-16.77,99-18.86,106.51-3.36,13-3.36,13h187s-7.55-41.93-12.16-60.38-13-64.15-13.42-69.6-.84-19.71-5.87-25.16S359.14,283.41,357.88,283,313,263.7,313,263.7Z" style="fill: rgb(255, 255, 255); stroke: rgb(38, 50, 56); stroke-linecap: round; stroke-linejoin: round; transform-origin: 298.925px 333.945px 0px;" id="elwgee3c6ab4" class="animable"></path><line x1="243.57" y1="314.86" x2="243.41" y2="322.82" style="fill: none; stroke: rgb(38, 50, 56); stroke-linecap: round; stroke-linejoin: round; transform-origin: 243.49px 318.84px 0px;" id="elel2gijfkwwn" class="animable"></line><line x1="244.67" y1="261.18" x2="243.65" y2="311.08" style="fill: none; stroke: rgb(38, 50, 56); stroke-linecap: round; stroke-linejoin: round; transform-origin: 244.16px 286.13px 0px;" id="eliwj8a0uc8rl" class="animable"></line><line x1="244.67" y1="272.51" x2="250.96" y2="318.21" style="fill: none; stroke: rgb(38, 50, 56); stroke-linecap: round; stroke-linejoin: round; transform-origin: 247.815px 295.36px 0px;" id="el5fu2km0u5eo" class="animable"></line><line x1="211.89" y1="284.08" x2="211.19" y2="291.67" style="fill: none; stroke: rgb(38, 50, 56); stroke-linecap: round; stroke-linejoin: round; transform-origin: 211.54px 287.875px 0px;" id="elrbsa006rx1f" class="animable"></line><line x1="215.86" y1="240.86" x2="212.49" y2="277.61" style="fill: none; stroke: rgb(38, 50, 56); stroke-linecap: round; stroke-linejoin: round; transform-origin: 214.175px 259.235px 0px;" id="elhm47fifqamh" class="animable"></line><line x1="279.69" y1="280.34" x2="282.41" y2="284.67" style="fill: none; stroke: rgb(38, 50, 56); stroke-linecap: round; stroke-linejoin: round; transform-origin: 281.05px 282.505px 0px;" id="elvco5icb4pbe" class="animable"></line><line x1="273.18" y1="269.99" x2="278.45" y2="278.38" style="fill: none; stroke: rgb(38, 50, 56); stroke-linecap: round; stroke-linejoin: round; transform-origin: 275.815px 274.185px 0px;" id="el0vgzbp2f9tm" class="animable"></line><path d="M345.39,410.84c-1.35,12-1.35,37.77-1.35,37.77" style="fill: none; stroke: rgb(38, 50, 56); stroke-linecap: round; stroke-linejoin: round; transform-origin: 344.715px 429.725px 0px;" id="elmwc7ypum1nj" class="animable"></path><path d="M346.08,345c.18,2.07.35,4.18.48,6.33,1.07,17.18.92,39-.19,51.48" style="fill: none; stroke: rgb(38, 50, 56); stroke-linecap: round; stroke-linejoin: round; transform-origin: 346.684px 373.905px 0px;" id="el99cy9bp14am" class="animable"></path><path d="M341.53,314s2.49,11.36,4.1,26.42" style="fill: none; stroke: rgb(38, 50, 56); stroke-linecap: round; stroke-linejoin: round; transform-origin: 343.58px 327.21px 0px;" id="ellle5in7m0h" class="animable"></path><path d="M385.12,403.38c-1.22,20.62-.4,51.1-.4,51.1" style="fill: none; stroke: rgb(38, 50, 56); stroke-linecap: round; stroke-linejoin: round; transform-origin: 384.785px 428.93px 0px;" id="elgdnh8age0l5" class="animable"></path><path d="M378.85,336.24s10.48,37.74,7.54,54.51c-.38,2.2-.7,4.92-.95,8" style="fill: none; stroke: rgb(38, 50, 56); stroke-linecap: round; stroke-linejoin: round; transform-origin: 382.88px 367.495px 0px;" id="el9biq59ckq9a" class="animable"></path><path d="M256.47,385.67a53.48,53.48,0,0,0,1.82-6.08" style="fill: none; stroke: rgb(38, 50, 56); stroke-linecap: round; stroke-linejoin: round; transform-origin: 257.38px 382.63px 0px;" id="el5war033rrw3" class="animable"></path><path d="M237.3,425.78s11.37-20.36,17.58-35.89" style="fill: none; stroke: rgb(38, 50, 56); stroke-linecap: round; stroke-linejoin: round; transform-origin: 246.09px 407.835px 0px;" id="elg8gfxovci2r" class="animable"></path><path d="M309.66,247.77s-4.61-5.87-6.29-2.52-16.77,15.93-16.77,15.93-1.68,13.42.42,21,3.35,13,4.19,14.26,10.9-13,15.93-13.42,8.39.84,12.16,3.35,18.38,25.47,18.38,25.47,9.72-14.15,10.14-16.66,2.93-4.61,4.19-5.45,15.51,4.61,18,5.87,4.61,10.48,5.45,7.13-11.74-15.94-15.93-22.23-10.48-19.29-16.77-22.64S309.66,247.77,309.66,247.77Z" style="fill: rgb(255, 255, 255); stroke: rgb(38, 50, 56); stroke-linecap: round; stroke-linejoin: round; transform-origin: 330.732px 278.029px 0px;" id="ely351pc02urd" class="animable"></path><path d="M308.82,224.29l-2.93,30.19s19.28,32.7,21.8,35.22,8.39,22.64,11.74,18,5.87-21.81,5.87-28.52,1.26-38.15,1.26-38.15-18-1.68-24.32-5.45S308.82,224.29,308.82,224.29Z" style="fill: rgb(255, 255, 255); stroke: rgb(38, 50, 56); stroke-linecap: round; stroke-linejoin: round; transform-origin: 326.225px 266.341px 0px;" id="elivqbh46xudm" class="animable"></path><path d="M308.82,224.29l-.35,3.64,37,42.47c.35-11.67,1.06-29.34,1.06-29.34s-18-1.68-24.32-5.45S308.82,224.29,308.82,224.29Z" style="fill: rgb(38, 50, 56); stroke: rgb(38, 50, 56); stroke-linecap: round; stroke-linejoin: round; transform-origin: 327.5px 247.345px 0px;" id="elsq1rbxb26ub" class="animable"></path><polygon points="347.4 325.34 352.01 354.27 385.13 358.04 379.26 331.21 347.4 325.34" style="fill: rgb(255, 255, 255); stroke: rgb(38, 50, 56); stroke-linecap: round; stroke-linejoin: round; transform-origin: 366.265px 341.69px 0px;" id="el98dxtwms1o" class="animable"></polygon><path d="M342.79,150.91s-4.2-10.48-20.13-2.52-21.39,33.13-21.39,39S299.18,200,303,200s8.39-10.91,11.32-15.1,26.42-15.09,31.45-14.67,22.64,22.64,22.64,22.64l.42,13.42s14.68-6.29,17.61-17.61-12.16-32.71-25.16-39.42S342.79,150.91,342.79,150.91Z" style="fill: rgb(38, 50, 56); stroke: rgb(38, 50, 56); stroke-linecap: round; stroke-linejoin: round; transform-origin: 343.754px 175.848px 0px;" id="elaicj7aix9gc" class="animable"></path><path d="M307.56,192.42s-1.67-9.23-6.29-5-2.51,21,.42,22.64,5-5.87,5-5.87Z" style="fill: rgb(255, 255, 255); stroke: rgb(38, 50, 56); stroke-linecap: round; stroke-linejoin: round; transform-origin: 303.066px 198.302px 0px;" id="elo82kk8hwc6" class="animable"></path><path d="M306.73,183.19s-.84,27.68-.84,34.81,1.25,11.74,12.58,20.12,18.86,10.49,26.41,7.55,18-10.06,19.71-15.51,6.71-36.48,8-40.26S348.66,166,347,164.33a5.83,5.83,0,0,0-3.78-1.68s-6.7,4.19-18.44,10.06-14.68,8-14.68,8S307.56,192.42,306.73,183.19Z" style="fill: rgb(255, 255, 255); stroke: rgb(38, 50, 56); stroke-linecap: round; stroke-linejoin: round; transform-origin: 339.264px 204.788px 0px;" id="elbit7n6kbaf" class="animable"></path><path d="M331,186.11c-.2,2-1.2,3.46-2.24,3.36s-1.72-1.78-1.52-3.74,1.2-3.46,2.24-3.36S331.23,184.15,331,186.11Z" style="fill: rgb(38, 50, 56); transform-origin: 329.124px 185.92px 0px;" id="elv2rmumzbex" class="animable"></path><path d="M358.3,191.16c-.2,2-1.2,3.46-2.23,3.36s-1.72-1.78-1.52-3.74,1.19-3.46,2.23-3.35S358.5,189.2,358.3,191.16Z" style="fill: rgb(38, 50, 56); transform-origin: 356.425px 190.975px 0px;" id="ela1vmcsufxp5" class="animable"></path><path d="M321.82,178.58a13.89,13.89,0,0,1,14.26-2.09" style="fill: none; stroke: rgb(38, 50, 56); stroke-linecap: round; stroke-linejoin: round; transform-origin: 328.95px 176.987px 0px;" id="el981fkg7efog" class="animable"></path><path d="M367.94,189.06c-4.61-7.12-13.83-5.87-13.83-5.87s-2.94,5-3.36,8.39" style="fill: none; stroke: rgb(38, 50, 56); stroke-linecap: round; stroke-linejoin: round; transform-origin: 359.345px 187.343px 0px;" id="el10do1szrggwp" class="animable"></path><path d="M345.72,191.58c-8.3-3-34.25,3.13-39.36,4.39-.23,8.26-.47,18.16-.47,22,0,7.12,1.25,11.74,12.58,20.12s18.86,10.49,26.41,7.55,18-10.06,19.71-15.51c.92-3,2.86-13.72,4.62-23.4C364.19,202.8,352.76,194.14,345.72,191.58Z" style="fill: rgb(255, 255, 255); stroke: rgb(38, 50, 56); stroke-linecap: round; stroke-linejoin: round; transform-origin: 337.55px 218.829px 0px;" id="elvul3dicd39i" class="animable"></path><path d="M309.66,202.9s14.68-3.77,27.26-2.93" style="fill: none; stroke: rgb(38, 50, 56); stroke-linecap: round; stroke-linejoin: round; transform-origin: 323.29px 201.374px 0px;" id="el7rtwwof0ce8" class="animable"></path><line x1="323.09" y1="213.51" x2="329.37" y2="213.38" style="fill: none; stroke: rgb(38, 50, 56); stroke-linecap: round; stroke-linejoin: round; transform-origin: 326.23px 213.445px 0px;" id="el8tfqzlbc753" class="animable"></line><line x1="308.4" y1="213.8" x2="319.32" y2="213.59" style="fill: none; stroke: rgb(38, 50, 56); stroke-linecap: round; stroke-linejoin: round; transform-origin: 313.86px 213.695px 0px;" id="elo7boexxof4" class="animable"></line><line x1="364.17" y1="222.19" x2="355.36" y2="219.67" style="fill: none; stroke: rgb(38, 50, 56); stroke-linecap: round; stroke-linejoin: round; transform-origin: 359.765px 220.93px 0px;" id="elkxgmdxf6ew" class="animable"></line><line x1="359.56" y1="204.58" x2="366.69" y2="207.93" style="fill: none; stroke: rgb(38, 50, 56); stroke-linecap: round; stroke-linejoin: round; transform-origin: 363.125px 206.255px 0px;" id="elsdvtofmugss" class="animable"></line><path d="M308.82,222.61s8.39,2.93,13,2.93" style="fill: none; stroke: rgb(38, 50, 56); stroke-linecap: round; stroke-linejoin: round; transform-origin: 315.32px 224.075px 0px;" id="eliiu865203td" class="animable"></path><path d="M369.21,206.76s4.6-5.12,4.6,1.17-7.54,13-7.54,13Z" style="fill: rgb(255, 255, 255); stroke: rgb(38, 50, 56); stroke-linecap: round; stroke-linejoin: round; transform-origin: 370.04px 212.863px 0px;" id="elxjivll38e5m" class="animable"></path></g><g id="freepik--DNA--inject-111" style="transform-origin: 112.232px 214.8px 0px;" class="animable"><path d="M128,265.94a2.56,2.56,0,0,1-.93-.18L74.71,244.9a2.5,2.5,0,0,1,1.85-4.65l52.35,20.87a2.5,2.5,0,0,1-.92,4.82Z" style="fill: rgb(255, 255, 255); stroke: rgb(38, 50, 56); stroke-linecap: round; stroke-linejoin: round; transform-origin: 101.805px 253.006px 0px;" id="elc1gakclrgf" class="animable"></path><path d="M76.56,240.25a2.5,2.5,0,0,0-1.85,4.65L96,253.38a6.94,6.94,0,0,1,3.77-3.88Z" style="fill: rgb(255, 255, 255); stroke: rgb(38, 50, 56); stroke-linecap: round; stroke-linejoin: round; transform-origin: 86.451px 246.726px 0px;" id="el1ydtia88ird" class="animable"></path><path d="M151.15,79.75a22.35,22.35,0,0,0,3.61-15.47,38.58,38.58,0,0,0-9.56-9.68c.77.56-.1,8.81-.1,10,0,1.38-1,9.16.1,10A45.16,45.16,0,0,1,151.15,79.75Z" style="fill: rgb(38, 50, 56); stroke: rgb(38, 50, 56); stroke-linecap: round; stroke-linejoin: round; transform-origin: 149.822px 67.175px 0px;" id="elua9gu4lxbu" class="animable"></path><path d="M152.3,225.41c-4.88-9.95-17-16.84-25.88-22.64-12.62-8.23-25.75-15.67-38.19-24.17-6.44-4.4-15.57-10-20.17-17.35,0,0-2.79,9.71-1.76,14.85.17.85.36,1.72.55,2.56a21.51,21.51,0,0,0,2.88,4.46c8.34,10.16,20.8,17.23,31.79,24.1,12.7,7.93,25.86,15.36,37.73,24.52a64,64,0,0,1,9.6,8.66A20.41,20.41,0,0,0,152.5,235a21.58,21.58,0,0,0,.91-2.93c.08-.26.15-.47.22-.64s0-.52,0-.77A13.24,13.24,0,0,0,152.3,225.41Z" style="fill: rgb(38, 50, 56); stroke: rgb(38, 50, 56); stroke-linecap: round; stroke-linejoin: round; transform-origin: 109.866px 200.825px 0px;" id="elo066e6aepbj" class="animable"></path><path d="M148.86,237.49h-.22l-61.08-5.31a2.5,2.5,0,0,1,.43-5l61.08,5.32a2.5,2.5,0,0,1-.21,5Z" style="fill: rgb(255, 255, 255); stroke: rgb(38, 50, 56); stroke-linecap: round; stroke-linejoin: round; transform-origin: 118.366px 232.336px 0px;" id="elqbcikydwzz" class="animable"></path><path d="M88,227.18a2.5,2.5,0,0,0-.43,5l26.82,2.33a13.76,13.76,0,0,1,1.14-4.92Z" style="fill: rgb(255, 255, 255); stroke: rgb(38, 50, 56); stroke-linecap: round; stroke-linejoin: round; transform-origin: 100.403px 230.84px 0px;" id="elzhgthf5jku8" class="animable"></path><path d="M134.06,220.8a2.43,2.43,0,0,1-.65-.09l-19.73-5.31a2.5,2.5,0,0,1,1.3-4.83l19.73,5.31a2.5,2.5,0,0,1-.65,4.92Z" style="fill: rgb(255, 255, 255); stroke: rgb(38, 50, 56); stroke-linecap: round; stroke-linejoin: round; transform-origin: 124.206px 215.642px 0px;" id="el5mwzurk32zb" class="animable"></path><path d="M116.61,207.9a2.53,2.53,0,0,1-1.07-.24l-13.66-6.45a2.5,2.5,0,1,1,2.14-4.52l13.66,6.45a2.5,2.5,0,0,1-1.07,4.76Z" style="fill: rgb(255, 255, 255); stroke: rgb(38, 50, 56); stroke-linecap: round; stroke-linejoin: round; transform-origin: 109.78px 202.174px 0px;" id="el19f45bvkvbs" class="animable"></path><path d="M147.94,337.61s3.57-5.06,3.57-9.37a.86.86,0,0,1,0-.16c-2.5-12.85-12.82-21.87-23.62-29.22-14.31-9.74-30.29-16.83-44.33-27-5-3.6-10.19-7.82-13.1-13.36-.1-.17-.19-.35-.28-.53a26.48,26.48,0,0,1-1.33-3.54c-.19-.59-.16-1.25-.34-1.83-.09-.26-.16,1-.22,2.89s-.08,4.23-.09,6.46c-.12,4-.28,8.08.51,11.88,1.14,5.49,5.12,9.95,9.21,13.57,12.91,11.43,29.44,18.46,44,27.52C130.67,320.44,142,327.87,147.94,337.61Z" style="fill: rgb(38, 50, 56); stroke: rgb(38, 50, 56); stroke-linecap: round; stroke-linejoin: round; transform-origin: 109.805px 295.088px 0px;" id="elm2r1613cto" class="animable"></path><path d="M103.33,295.15h-.19L88.34,294a2.5,2.5,0,1,1,.39-5l14.79,1.14a2.5,2.5,0,0,1-.19,5Z" style="fill: rgb(255, 255, 255); stroke: rgb(38, 50, 56); stroke-linecap: round; stroke-linejoin: round; transform-origin: 95.9771px 292.071px 0px;" id="elip8qegsx0td" class="animable"></path><path d="M95.37,278.08h-.24l-20.48-1.9a2.5,2.5,0,1,1,.46-5l20.48,1.9a2.5,2.5,0,0,1-.22,5Z" style="fill: rgb(255, 255, 255); stroke: rgb(38, 50, 56); stroke-linecap: round; stroke-linejoin: round; transform-origin: 85.1759px 274.626px 0px;" id="ellyck3cq1jo" class="animable"></path><path d="M154.35,172.06a12.61,12.61,0,0,0-1.61-5.34c-2.88-5.28-7.63-9.65-12-13.67-6.22-5.73-12.84-11-19.5-16.22-13.63-10.66-27.85-20.68-40.83-32.14C77.29,102,73.73,99,71.17,95.51c0,0-2.82,11-.08,19.24.14.41.26.8.37,1.19a59.7,59.7,0,0,0,4.38,4.54,194.06,194.06,0,0,0,15.09,13c13.26,10.54,27,20.45,40.09,31.21,5.68,4.68,12.3,9.71,17.26,15.72.16-.11.31-.23.46-.35a18.6,18.6,0,0,0,4.23-4.31,18.32,18.32,0,0,0,1.07-2.18,4.9,4.9,0,0,1,.37-.67Z" style="fill: rgb(38, 50, 56); stroke: rgb(38, 50, 56); stroke-linecap: round; stroke-linejoin: round; transform-origin: 112.151px 137.96px 0px;" id="ellc7b4ffoot" class="animable"></path><path d="M68.81,155.92a2.5,2.5,0,0,1-1-4.78l38.32-17.07a2.5,2.5,0,1,1,2,4.57L69.83,155.71A2.66,2.66,0,0,1,68.81,155.92Z" style="fill: rgb(255, 255, 255); stroke: rgb(38, 50, 56); stroke-linecap: round; stroke-linejoin: round; transform-origin: 88.0602px 144.854px 0px;" id="el2z539o8cojh" class="animable"></path><path d="M88.6,141.87l-20.81,9.27a2.5,2.5,0,0,0,1,4.78,2.66,2.66,0,0,0,1-.21L92,145.82Z" style="fill: rgb(255, 255, 255); stroke: rgb(38, 50, 56); stroke-linecap: round; stroke-linejoin: round; transform-origin: 79.1575px 148.895px 0px;" id="ell9rogii0n2" class="animable"></path><path d="M146.2,191.58h-.12l-57.66-2.65a2.5,2.5,0,0,1,.23-5l57.66,2.66a2.5,2.5,0,0,1-.11,5Z" style="fill: rgb(255, 255, 255); stroke: rgb(38, 50, 56); stroke-linecap: round; stroke-linejoin: round; transform-origin: 117.394px 187.759px 0px;" id="elaemzofur10b" class="animable"></path><path d="M86,186.31a2.5,2.5,0,0,0,2.38,2.62l28.11,1.29a15.58,15.58,0,0,0,.37-5l-28.25-1.3A2.5,2.5,0,0,0,86,186.31Z" style="fill: rgb(255, 255, 255); stroke: rgb(38, 50, 56); stroke-linecap: round; stroke-linejoin: round; transform-origin: 101.458px 187.069px 0px;" id="elmst22jb2yv" class="animable"></path><path d="M154.41,172.86a4.9,4.9,0,0,0-.37.67,18.32,18.32,0,0,1-1.07,2.18,18.6,18.6,0,0,1-4.23,4.31c-.15.12-.3.24-.46.35-4.41,3.42-9.51,6-14.45,8.55-13.35,6.89-27.1,13.14-39.46,21.77-11.9,8.31-23.3,19.53-25.56,34.52-.23,1.55-.3,0-.37,1.59L68.17,250s-.81,14.29-.27,20.49A22.29,22.29,0,0,0,71.68,281s-.54-1.89-1.62-7.55.41-14.94.41-14.94a39.75,39.75,0,0,1,1.62-3.94c7-14.65,21.67-24.33,35.36-32,12.8-7.21,27-12.55,39.08-20.92,3.32-2.29,7.09-5.15,7.77-9.39.07-.44.13-.89.19-1.34C155.2,185.18,154.84,178.57,154.41,172.86Z" style="fill: rgb(0, 255, 136); stroke: rgb(38, 50, 56); stroke-linecap: round; stroke-linejoin: round; transform-origin: 111.304px 226.93px 0px;" id="elsid94icugz" class="animable"></path><path d="M68.43,313.74a2.5,2.5,0,0,1-.1-5l58-2.28a2.5,2.5,0,1,1,.2,5l-58,2.28Z" style="fill: rgb(255, 255, 255); stroke: rgb(38, 50, 56); stroke-linecap: round; stroke-linejoin: round; transform-origin: 97.4058px 310.099px 0px;" id="elubhxffreg47" class="animable"></path><path d="M97.24,307.61l-28.91,1.13a2.5,2.5,0,0,0,.1,5h.1l30.77-1.21A8.79,8.79,0,0,0,97.24,307.61Z" style="fill: rgb(255, 255, 255); stroke: rgb(38, 50, 56); stroke-linecap: round; stroke-linejoin: round; transform-origin: 82.5898px 310.675px 0px;" id="ela1l87dpwmc5" class="animable"></path><path d="M153.63,231.38c-.07.17-.14.38-.22.64a21.58,21.58,0,0,1-.91,2.93,20.41,20.41,0,0,1-3.65,5.45c-5.42,5.94-14.11,9.93-20.59,13.29-12.59,6.54-25.63,12.29-37.6,20-11.35,7.28-23.41,17.29-25.11,31.57-.72,6-.32,12.34-.28,18.4a38.16,38.16,0,0,0,.17,5.05A77.91,77.91,0,0,1,68.18,316c3.51-7.25,9.87-13.31,16.16-18,11.14-8.31,23.87-14.27,36.26-20.44,9.78-4.87,21.24-9.7,28.72-17.95a15.24,15.24,0,0,0,4.27-9.73c0-.36,0-.71,0-1.07A163.64,163.64,0,0,0,153.63,231.38Z" style="fill: rgb(0, 255, 136); stroke: rgb(38, 50, 56); stroke-linecap: round; stroke-linejoin: round; transform-origin: 109.483px 280.045px 0px;" id="el7fqoz5ujdf4" class="animable"></path><path d="M65.87,330.61c2.76,8.81,10.73,15,18.5,19.25-.59-.32.1-9,.1-10s.85-9.48-.1-10C78.68,326.77,72,322.06,68.18,316a77.91,77.91,0,0,0-2.74,12.67A11.26,11.26,0,0,0,65.87,330.61Z" style="fill: rgb(38, 50, 56); stroke: rgb(38, 50, 56); stroke-linecap: round; stroke-linejoin: round; transform-origin: 75.1299px 332.93px 0px;" id="el9l272jmjwdk" class="animable"></path><path d="M82.9,121.28l10.76,1a19.1,19.1,0,0,1,.72-5l-11-1a2.5,2.5,0,1,0-.46,5Z" style="fill: rgb(255, 255, 255); stroke: rgb(38, 50, 56); stroke-linecap: round; stroke-linejoin: round; transform-origin: 87.5096px 119.275px 0px;" id="elzc95g14cf1" class="animable"></path><path d="M147.34,99,147,99,70.4,89.52a2.5,2.5,0,1,1,.61-5L147.64,94a2.5,2.5,0,0,1-.3,5Z" style="fill: rgb(255, 255, 255); stroke: rgb(38, 50, 56); stroke-linecap: round; stroke-linejoin: round; transform-origin: 109.09px 91.7529px 0px;" id="elalzdgxfzspj" class="animable"></path><path d="M147.64,94l-35.18-4.36a16.27,16.27,0,0,1-1.69,4.83L147,99l.31,0a2.5,2.5,0,0,0,.3-5Z" style="fill: rgb(255, 255, 255); stroke: rgb(38, 50, 56); stroke-linecap: round; stroke-linejoin: round; transform-origin: 130.367px 94.3223px 0px;" id="el3qal77vc70g" class="animable"></path><path d="M75.63,75.88a2.5,2.5,0,0,1-.2-5l74-6.07a2.5,2.5,0,0,1,.41,5l-74,6.07Z" style="fill: rgb(255, 255, 255); stroke: rgb(38, 50, 56); stroke-linecap: round; stroke-linejoin: round; transform-origin: 112.586px 70.3418px 0px;" id="el8o2hc20ykpc" class="animable"></path><path d="M149.41,64.82,115.49,67.6a6.32,6.32,0,0,1,1.13,4.92l33.2-2.72a2.5,2.5,0,0,0-.41-5Z" style="fill: rgb(255, 255, 255); stroke: rgb(38, 50, 56); stroke-linecap: round; stroke-linejoin: round; transform-origin: 133.807px 68.6557px 0px;" id="elorjtls667d9" class="animable"></path><path d="M118.51,113.06a1.9,1.9,0,0,1-.41,0l-46.66-7.58a2.5,2.5,0,1,1,.8-4.94l46.67,7.59a2.5,2.5,0,0,1-.4,5Z" style="fill: rgb(255, 255, 255); stroke: rgb(38, 50, 56); stroke-linecap: round; stroke-linejoin: round; transform-origin: 95.2778px 106.823px 0px;" id="el7yyl0jgcyux" class="animable"></path><path d="M118.91,108.09l-25-4.06a6.5,6.5,0,0,0-1.83,4.77l26,4.22a1.9,1.9,0,0,0,.41,0,2.5,2.5,0,0,0,.4-5Z" style="fill: rgb(255, 255, 255); stroke: rgb(38, 50, 56); stroke-linecap: round; stroke-linejoin: round; transform-origin: 106.637px 108.531px 0px;" id="elj6muay31xlf" class="animable"></path><path d="M76.89,85.17a38.41,38.41,0,0,1,4.44-5.25c1.07-1,.1-8.46.1-10,0-2.36,0-4.71,0-7.07,0-.45-.31-2.7-.07-2.93A44.27,44.27,0,0,0,70.76,76.59a43.47,43.47,0,0,0-2.37,13.3c-.29-1.41-.31-.17-.08,3.73-.17,5.44-1,11.65.19,16.87a13.47,13.47,0,0,0,3,5.45c-.11-.39-.23-.78-.37-1.19-2.74-8.23.08-19.24.08-19.24A47,47,0,0,1,76.89,85.17Z" style="fill: rgb(0, 255, 136); stroke: rgb(38, 50, 56); stroke-linecap: round; stroke-linejoin: round; transform-origin: 74.8515px 87.93px 0px;" id="elcan06akkoa" class="animable"></path><path d="M70.33,176.41a2.5,2.5,0,0,1-.85-4.85l58.8-21.25A2.5,2.5,0,0,1,130,155l-58.8,21.24A2.58,2.58,0,0,1,70.33,176.41Z" style="fill: rgb(255, 255, 255); stroke: rgb(38, 50, 56); stroke-linecap: round; stroke-linejoin: round; transform-origin: 99.6866px 163.301px 0px;" id="elu7x5ma9c6hq" class="animable"></path><path d="M98.61,161,69.48,171.56a2.5,2.5,0,0,0,.85,4.85,2.58,2.58,0,0,0,.85-.15l29.31-10.59A5.9,5.9,0,0,1,98.61,161Z" style="fill: rgb(255, 255, 255); stroke: rgb(38, 50, 56); stroke-linecap: round; stroke-linejoin: round; transform-origin: 84.1614px 168.705px 0px;" id="elen408zaorcn" class="animable"></path><path d="M139.75,357.37a2.69,2.69,0,0,1-.73-.11l-58.8-17.83a2.5,2.5,0,0,1,1.45-4.79l58.8,17.83a2.5,2.5,0,0,1-.72,4.9Z" style="fill: rgb(255, 255, 255); stroke: rgb(38, 50, 56); stroke-linecap: round; stroke-linejoin: round; transform-origin: 110.356px 345.951px 0px;" id="elg8s8ian525s" class="animable"></path><path d="M104.82,341.66l-23.15-7a2.5,2.5,0,0,0-1.45,4.79l22.18,6.72A10.37,10.37,0,0,1,104.82,341.66Z" style="fill: rgb(255, 255, 255); stroke: rgb(38, 50, 56); stroke-linecap: round; stroke-linejoin: round; transform-origin: 91.631px 340.361px 0px;" id="elriekxuwcqm" class="animable"></path><path d="M70.7,331.57a2.5,2.5,0,0,1-.13-5l75.11-4.17a2.5,2.5,0,0,1,.28,5l-75.12,4.18Z" style="fill: rgb(255, 255, 255); stroke: rgb(38, 50, 56); stroke-linecap: round; stroke-linejoin: round; transform-origin: 108.229px 326.988px 0px;" id="el98qggpkkrvu" class="animable"></path><path d="M110.33,324.36l-39.76,2.21a2.5,2.5,0,0,0,.13,5h.14l40.22-2.24A11.64,11.64,0,0,0,110.33,324.36Z" style="fill: rgb(255, 255, 255); stroke: rgb(38, 50, 56); stroke-linecap: round; stroke-linejoin: round; transform-origin: 89.612px 327.965px 0px;" id="elt5qx4l7pdhg" class="animable"></path><path d="M74.65,276.17l10.75,1a19.69,19.69,0,0,1,.72-5l-11-1a2.5,2.5,0,1,0-.46,5Z" style="fill: rgb(255, 255, 255); stroke: rgb(38, 50, 56); stroke-linecap: round; stroke-linejoin: round; transform-origin: 79.2496px 274.165px 0px;" id="elybego8xsdwm" class="animable"></path><path d="M152.09,333.51c0-.41,0-.82-.05-1.23v-.14h0a33.27,33.27,0,0,0-.51-4.07.86.86,0,0,0,0,.16c0,4.31-3.57,9.37-3.57,9.37C140.78,345.49,130,351,120.87,355c-.69.3-.1,9-.1,10s.7,9.74.1,10c10.08-4.33,19.94-10,27.46-18.12,1.14-1.24,3-2.92,3.62-4.54.44-1.17.16-2.85.17-4.09C152.16,343.31,152.19,338.4,152.09,333.51Z" style="fill: rgb(0, 255, 136); stroke: rgb(38, 50, 56); stroke-linecap: round; stroke-linejoin: round; transform-origin: 136.367px 351.535px 0px;" id="elt1zv5km7vwe" class="animable"></path><path d="M158.39,73.72a31.38,31.38,0,0,0-1.06-3.89c-.67-1.91-2.29-4.78-2.57-5.55a22.35,22.35,0,0,1-3.61,15.47A244.1,244.1,0,0,1,117.07,104c-9.4,5.53-19.13,10.49-28.26,16.45-7.92,5.17-16,11.36-20.36,20-4.77,9.44-3.44,21.46-3.14,31.63a16.2,16.2,0,0,0,1.54,6.58c-.19-.84-.38-1.71-.55-2.56-1-5.14,1.76-14.85,1.76-14.85a35.93,35.93,0,0,1,6-8.78c6.62-7.31,15.29-12.57,23.74-17.49,9.84-5.74,19.71-11.45,29.32-17.57,4.8-3.06,9.54-6.21,14.17-9.51,4.35-3.1,9.15-6.17,12.91-10C160.72,91.25,160.14,82.28,158.39,73.72Z" style="fill: rgb(0, 255, 136); stroke: rgb(38, 50, 56); stroke-linecap: round; stroke-linejoin: round; transform-origin: 112.232px 121.47px 0px;" id="el3fd020xvlpx" class="animable"></path></g><g id="freepik--Bottles--inject-111" style="transform-origin: 242.415px 414.31px 0px;" class="animable"><rect x="172" y="406.98" width="5" height="43.5" style="fill: rgb(255, 255, 255); stroke: rgb(38, 50, 56); stroke-linecap: round; stroke-linejoin: round; transform-origin: 174.5px 428.73px 0px;" id="el7s2lvxinv5" class="animable"></rect><path d="M180,394.48h11.5a0,0,0,0,1,0,0V439a4.53,4.53,0,0,1-4.53,4.53h-2.45A4.53,4.53,0,0,1,180,439V394.48A0,0,0,0,1,180,394.48Z" style="fill: rgb(255, 255, 255); stroke: rgb(38, 50, 56); stroke-linecap: round; stroke-linejoin: round; transform-origin: 185.75px 419.005px 0px;" id="el0uqy36iz5s3" class="animable"></path><path d="M181.22,401.12V437a4.52,4.52,0,0,0,4.53,4.52h0a4.52,4.52,0,0,0,4.53-4.52V401.12Z" style="fill: rgb(0, 255, 136); transform-origin: 185.75px 421.32px 0px;" id="eley9fx17ln9" class="animable"></path><path d="M191.22,396.15h-11a1.63,1.63,0,0,1-1.63-1.63h0a1.63,1.63,0,0,1,1.63-1.63h11a1.63,1.63,0,0,1,1.63,1.63h0A1.63,1.63,0,0,1,191.22,396.15Z" style="fill: rgb(255, 255, 255); stroke: rgb(38, 50, 56); stroke-linecap: round; stroke-linejoin: round; transform-origin: 185.72px 394.52px 0px;" id="elzq2ct479g2" class="animable"></path><path d="M197.65,394.48h11.5a0,0,0,0,1,0,0V439a4.53,4.53,0,0,1-4.53,4.53h-2.45a4.53,4.53,0,0,1-4.53-4.53V394.48a0,0,0,0,1,0,0Z" style="fill: rgb(255, 255, 255); stroke: rgb(38, 50, 56); stroke-linecap: round; stroke-linejoin: round; transform-origin: 203.395px 419.005px 0px;" id="ely8vdwyokg7" class="animable"></path><path d="M198.88,401.12V437a4.52,4.52,0,0,0,4.52,4.52h0a4.52,4.52,0,0,0,4.53-4.52V401.12Z" style="fill: rgb(0, 255, 136); transform-origin: 203.405px 421.32px 0px;" id="el6qc0cbyhahv" class="animable"></path><path d="M208.87,396.15h-11a1.62,1.62,0,0,1-1.62-1.63h0a1.62,1.62,0,0,1,1.62-1.63h11a1.63,1.63,0,0,1,1.63,1.63h0A1.63,1.63,0,0,1,208.87,396.15Z" style="fill: rgb(255, 255, 255); stroke: rgb(38, 50, 56); stroke-linecap: round; stroke-linejoin: round; transform-origin: 203.375px 394.52px 0px;" id="el9nf4iagp9qc" class="animable"></path><path d="M215.3,394.48h11.5a0,0,0,0,1,0,0V439a4.53,4.53,0,0,1-4.53,4.53h-2.45A4.53,4.53,0,0,1,215.3,439V394.48A0,0,0,0,1,215.3,394.48Z" style="fill: rgb(255, 255, 255); stroke: rgb(38, 50, 56); stroke-linecap: round; stroke-linejoin: round; transform-origin: 221.05px 419.005px 0px;" id="elx75kgmlbazc" class="animable"></path><path d="M216.53,401.12V437a4.52,4.52,0,0,0,4.52,4.52h0a4.52,4.52,0,0,0,4.53-4.52V401.12Z" style="fill: rgb(0, 255, 136); transform-origin: 221.055px 421.32px 0px;" id="el15k4wfxy95" class="animable"></path><path d="M226.52,396.15h-11a1.63,1.63,0,0,1-1.63-1.63h0a1.63,1.63,0,0,1,1.63-1.63h11a1.63,1.63,0,0,1,1.63,1.63h0A1.63,1.63,0,0,1,226.52,396.15Z" style="fill: rgb(255, 255, 255); stroke: rgb(38, 50, 56); stroke-linecap: round; stroke-linejoin: round; transform-origin: 221.02px 394.52px 0px;" id="elycdnmvla2k" class="animable"></path><rect x="168" y="402.48" width="62.5" height="7.5" style="fill: rgb(255, 255, 255); stroke: rgb(38, 50, 56); stroke-linecap: round; stroke-linejoin: round; transform-origin: 199.25px 406.23px 0px;" id="el4qrb02ye1ha" class="animable"></rect><rect x="168" y="446.98" width="62.5" height="7.5" style="fill: rgb(255, 255, 255); stroke: rgb(38, 50, 56); stroke-linecap: round; stroke-linejoin: round; transform-origin: 199.25px 450.73px 0px;" id="el8n01m6amvjr" class="animable"></rect><path d="M301.45,400.45l-.07-22.19H278.17v22.66l-15.35,47.52a4.62,4.62,0,0,0,4.4,6h45a4.62,4.62,0,0,0,4.4-6Z" style="fill: rgb(255, 255, 255); stroke: rgb(38, 50, 56); stroke-linecap: round; stroke-linejoin: round; transform-origin: 289.72px 416.35px 0px;" id="el46htou1r5hx" class="animable"></path><path d="M300.81,409.42H278.86l-11.43,36.43a3.92,3.92,0,0,0,3.64,5.16h37.26a3.93,3.93,0,0,0,3.65-5.16Z" style="fill: rgb(0, 255, 136); transform-origin: 289.703px 430.215px 0px;" id="elrqumd5jge2" class="animable"></path><rect x="273.91" y="374.14" width="31.03" height="5.49" rx="1.87" style="fill: rgb(255, 255, 255); stroke: rgb(38, 50, 56); stroke-linecap: round; stroke-linejoin: round; transform-origin: 289.425px 376.885px 0px;" id="el6nkilxf9bw" class="animable"></rect></g><g id="freepik--Table--inject-111" style="transform-origin: 253.88px 454.48px 0px;" class="animable"><line x1="55.27" y1="454.48" x2="486.81" y2="454.48" style="fill: none; stroke: rgb(38, 50, 56); stroke-linecap: round; stroke-linejoin: round; transform-origin: 271.04px 454.48px 0px;" id="el7iw8eecl0sh" class="animable"></line><line x1="20.95" y1="454.48" x2="47.43" y2="454.48" style="fill: none; stroke: rgb(38, 50, 56); stroke-linecap: round; stroke-linejoin: round; transform-origin: 34.19px 454.48px 0px;" id="elcjblx2w6v64" class="animable"></line></g><defs>     <filter id="active" height="200%">         <feMorphology in="SourceAlpha" result="DILATED" operator="dilate" radius="2"></feMorphology>                <feFlood flood-color="#32DFEC" flood-opacity="1" result="PINK"></feFlood>        <feComposite in="PINK" in2="DILATED" operator="in" result="OUTLINE"></feComposite>        <feMerge>            <feMergeNode in="OUTLINE"></feMergeNode>            <feMergeNode in="SourceGraphic"></feMergeNode>        </feMerge>    </filter>    <filter id="hover" height="200%">        <feMorphology in="SourceAlpha" result="DILATED" operator="dilate" radius="2"></feMorphology>                <feFlood flood-color="#ff0000" flood-opacity="0.5" result="PINK"></feFlood>        <feComposite in="PINK" in2="DILATED" operator="in" result="OUTLINE"></feComposite>        <feMerge>            <feMergeNode in="OUTLINE"></feMergeNode>            <feMergeNode in="SourceGraphic"></feMergeNode>        </feMerge>            <feColorMatrix type="matrix" values="0   0   0   0   0                0   1   0   0   0                0   0   0   0   0                0   0   0   1   0 "></feColorMatrix>    </filter></defs></svg>